# xmcd CD database file
#
# Track frame offsets:
#	150
#	15013
#	33010
#	47888
#	66534
#	83732
#	100304
#	120283
#	139718
#	159495
#
# Disc length: 2319 seconds
#
# Revision: 1
# Processed by: cddbd v1.5.2PL0 Copyright (c) Steve Scherf et al.
# Submitted via: FreeDB 13.8
#
DISCID=71090d0a
DTITLE=C.V. Jørgensen - Storbyens små oaser
DYEAR=1977
DGENRE=Rock
TTITLE0=Det ganske lille band
TTITLE1=Entertaineren
TTITLE2=La Containe
TTITLE3=Tobaksvejen
TTITLE4=Hamburger Sally
TTITLE5=Storbybeduinen
TTITLE6=Fra en telefonboks
TTITLE7=Bellevue
TTITLE8=Abonnenten
TTITLE9=Maskemesteren
EXTD=Metronome MLP16607\nRemastered 2011 5099968087227\n
EXTT0=
EXTT1=
EXTT2=
EXTT3=
EXTT4=
EXTT5=
EXTT6=
EXTT7=
EXTT8=
EXTT9=
PLAYORDER=
